<svg width="464" height="340" viewBox="0 0 464 340" fill="none" xmlns="http://www.w3.org/2000/svg">
<g clip-path="url(#clip0_260_84)">
<path d="M464 0H0V340H464V0Z" fill="white"/>
<path d="M59.2521 268.921C58.431 266.522 57.6186 264.036 56.8377 261.532L58.7626 260.986C59.5385 263.473 60.3455 265.943 61.1611 268.327L59.2521 268.921ZM403.598 265.822L401.605 265.588C401.936 263.034 402.25 260.461 402.539 257.942L404.536 258.151C404.246 260.678 403.93 263.26 403.598 265.822ZM54.6207 254.088C53.9177 251.614 53.2362 249.093 52.5946 246.597L54.545 246.141C55.1828 248.622 55.8603 251.128 56.5589 253.587L54.6207 254.088ZM405.358 250.466L403.359 250.286C403.613 247.722 403.848 245.142 404.058 242.619L406.059 242.77C405.849 245.303 405.613 247.892 405.358 250.466ZM50.7596 239.061C50.1796 236.54 49.6278 233.991 49.1194 231.484L51.091 231.12C51.5963 233.611 52.1449 236.145 52.7211 238.65L50.7596 239.061ZM406.636 235.064L404.632 234.943C404.802 232.38 404.951 229.795 405.075 227.26L407.081 227.349C406.956 229.895 406.807 232.491 406.636 235.064ZM47.6803 223.87C47.2338 221.318 46.8203 218.744 46.4516 216.221L48.4404 215.956C48.8067 218.463 49.2174 221.019 49.661 223.554L47.6803 223.87ZM407.387 219.628L405.38 219.572C405.458 216.998 405.512 214.41 405.541 211.881L407.549 211.901C407.52 214.442 407.466 217.042 407.387 219.628ZM45.4438 208.541C45.1444 205.964 44.8838 203.371 44.6693 200.836L46.6709 200.682C46.884 203.198 47.1426 205.772 47.4397 208.331L45.4438 208.541ZM405.549 204.189C405.525 201.613 405.474 199.026 405.396 196.5L407.404 196.444C407.481 198.983 407.533 201.583 407.557 204.172L405.549 204.189ZM44.1426 193.11C44.0095 190.518 43.9212 187.915 43.8801 185.373L45.888 185.344C45.9287 187.864 46.0163 190.445 46.1484 193.017L44.1426 193.11ZM405.073 188.817C404.936 186.245 404.766 183.664 404.57 181.145L406.572 181.003C406.77 183.536 406.94 186.132 407.079 188.72L405.073 188.817ZM45.9071 177.668L43.8994 177.628C43.9553 175.029 44.0631 172.424 44.2199 169.889L46.2248 170.002C46.0693 172.513 45.9624 175.092 45.9071 177.668ZM403.873 173.489C403.605 170.917 403.301 168.348 402.97 165.853L404.962 165.613C405.295 168.124 405.601 170.71 405.871 173.299L403.873 173.489ZM46.8613 162.356L44.8633 162.165C45.1361 159.575 45.4686 156.986 45.8518 154.471L47.8391 154.746C47.4601 157.234 47.1312 159.794 46.8613 162.356ZM401.846 158.247C401.428 155.691 400.97 153.145 400.483 150.679L402.456 150.325C402.947 152.81 403.409 155.376 403.83 157.952L401.846 158.247ZM164.348 157.977C161.558 157.557 159.539 156.346 156.743 154.254L158.013 152.769C160.462 154.597 162.231 155.694 164.562 156.072L164.348 157.977ZM171.315 153.42L169.527 152.549C170.446 150.832 171.259 148.45 171.942 145.468L173.904 145.877C173.174 149.063 172.327 151.531 171.315 153.42ZM150.85 148.761C149.25 147.062 147.541 145.106 145.624 142.783L147.202 141.598C149.092 143.889 150.774 145.813 152.344 147.481L150.85 148.761ZM49.1804 147.19L47.209 146.825C47.7292 144.269 48.3178 141.72 48.9586 139.249L50.9081 139.709C50.2753 142.148 49.694 144.665 49.1804 147.19ZM398.86 143.161C398.265 140.631 397.624 138.124 396.953 135.707L398.895 135.217C399.571 137.657 400.219 140.189 400.819 142.742L398.86 143.161ZM175.255 138.169L173.264 137.925C173.572 135.639 173.848 133.135 174.109 130.271L176.109 130.437C175.847 133.327 175.567 135.856 175.255 138.169ZM140.705 136.612C139.073 134.51 137.38 132.288 135.921 130.37L137.547 129.245C139.003 131.16 140.692 133.377 142.319 135.473L140.705 136.612ZM287.725 136.455C286.161 136.455 284.627 136.009 283.165 135.131L284.236 133.51C286.432 134.833 288.593 134.836 290.926 133.781L291.79 135.51C290.411 136.137 289.043 136.455 287.725 136.455ZM53.0439 132.328L51.1235 131.768C51.9214 129.28 52.7968 126.805 53.7253 124.412L55.6086 125.077C54.6935 127.435 53.8306 129.875 53.0439 132.328ZM298.357 130.503L296.881 129.203C298.404 127.631 300.036 125.691 301.871 123.272L303.498 124.395C301.616 126.876 299.934 128.873 298.357 130.503ZM277.455 129.186C276.155 127.274 274.868 125.022 273.518 122.302L275.333 121.483C276.644 124.125 277.889 126.304 279.14 128.144L277.455 129.186ZM394.734 128.338C393.926 125.856 393.062 123.413 392.169 121.077L394.056 120.421C394.96 122.786 395.834 125.258 396.652 127.769L394.734 128.338ZM131.162 124.126C129.324 121.731 127.793 119.765 126.343 117.939L127.944 116.782C129.401 118.617 130.938 120.591 132.782 122.995L131.162 124.126ZM176.713 122.702L174.709 122.579C174.862 120.335 175.017 117.813 175.183 114.868L177.188 114.971C177.021 117.923 176.866 120.451 176.713 122.702ZM58.6187 117.988L56.7815 117.214C57.8838 114.833 59.0586 112.495 60.307 110.208L62.0877 111.094C60.8593 113.344 59.7036 115.644 58.6187 117.988ZM308.099 117.987L306.421 116.935C307.848 114.866 309.322 112.673 310.814 110.459L312.503 111.494C311.008 113.714 309.532 115.909 308.099 117.987ZM270.285 115.155C269.376 112.979 268.436 110.605 267.412 107.897L269.301 107.247C270.317 109.935 271.249 112.289 272.151 114.445L270.285 115.155ZM389.215 113.96C388.135 111.562 386.993 109.232 385.82 107.036L387.61 106.167C388.803 108.4 389.963 110.768 391.06 113.205L389.215 113.96ZM121.385 111.87C119.563 109.713 117.867 107.793 116.2 106.001L117.702 104.73C119.39 106.545 121.107 108.488 122.949 110.669L121.385 111.87ZM177.606 107.246L175.6 107.149C175.735 104.591 175.87 102.031 176.013 99.4258L178.019 99.5261C177.875 102.13 177.741 104.689 177.606 107.246ZM316.906 105.026L315.231 103.97C316.908 101.548 318.409 99.4539 319.818 97.5667L321.454 98.6777C320.058 100.547 318.571 102.623 316.906 105.026ZM66.0702 104.485L64.3777 103.454C65.9556 101.097 67.5829 98.9685 69.2136 97.1273L70.7477 98.3632C69.1742 100.14 67.6003 102.2 66.0702 104.485ZM264.73 100.589C263.809 98.015 262.906 95.4397 262.144 93.2599L264.048 92.6539C264.81 94.8306 265.712 97.4018 266.631 99.97L264.73 100.589ZM110.678 100.455C108.626 98.5488 106.608 96.8653 104.68 95.4505L105.905 93.9328C107.894 95.3924 109.971 97.1251 112.079 99.0824L110.678 100.455ZM381.921 100.373C380.482 98.1335 378.974 96.0155 377.437 94.0778L379.039 92.9225C380.615 94.9098 382.161 97.0798 383.634 99.3721L381.921 100.373ZM76.3801 93.1527L75.1621 91.63C77.5603 89.8853 80.0561 88.6271 82.5804 87.8903L83.1681 89.7217C80.8722 90.3917 78.5884 91.546 76.3801 93.1527ZM326.297 92.5668L324.737 91.361C326.62 89.1449 328.405 87.2378 330.193 85.5312L331.613 86.8848C329.875 88.544 328.137 90.4027 326.297 92.5668ZM178.469 91.8137L176.464 91.6998C176.638 88.9161 176.811 86.388 176.992 83.9711L178.995 84.1078C178.814 86.5169 178.642 89.0376 178.469 91.8137ZM98.0411 91.4127C95.5353 90.2234 93.0706 89.4643 90.7154 89.1566L90.9879 87.2591C93.5599 87.5954 96.234 88.4158 98.9357 89.6981L98.0411 91.4127ZM372.271 88.3168C370.338 86.4278 368.336 84.7604 366.322 83.361L367.504 81.813C369.609 83.2753 371.697 85.0136 373.708 86.9791L372.271 88.3168ZM259.582 85.9314C258.583 83.0819 257.76 80.7585 256.991 78.6194L258.891 77.9985C259.661 80.1422 260.486 82.47 261.486 85.3242L259.582 85.9314ZM337.624 81.9959L336.472 80.4266C338.942 78.7788 341.437 77.5584 343.887 76.7995L344.507 78.6211C342.246 79.3213 339.93 80.4569 337.624 81.9959ZM359.535 79.6496C357.048 78.6491 354.53 78.0298 352.052 77.8091L352.239 75.9023C354.921 76.1413 357.639 76.8084 360.315 77.885L359.535 79.6496ZM179.637 76.4187L177.637 76.2492C177.887 73.562 178.16 70.967 178.446 68.5358L180.442 68.7498C180.157 71.1664 179.886 73.7465 179.637 76.4187ZM254.319 71.335C253.349 68.7519 252.435 66.3906 251.524 64.1165L253.4 63.4331C254.316 65.7198 255.235 68.0933 256.21 70.689L254.319 71.335ZM181.464 61.1133L179.477 60.8394C179.883 58.158 180.329 55.5793 180.804 53.175L182.777 53.5291C182.308 55.9069 181.866 58.4586 181.464 61.1133ZM248.541 56.9656C247.462 54.4902 246.374 52.1218 245.308 49.9264L247.13 49.1216C248.207 51.34 249.306 53.7319 250.395 56.2305L248.541 56.9656ZM184.482 46.0344L182.534 45.5703C183.235 42.8959 184.007 40.3768 184.829 38.083L186.729 38.7027C185.925 40.9455 185.169 43.4124 184.482 46.0344ZM241.741 43.053C240.421 40.6806 239.071 38.4536 237.731 36.4335L239.428 35.4094C240.795 37.4702 242.17 39.7397 243.515 42.1547L241.741 43.053ZM189.745 31.6858L187.944 30.8382C189.263 28.29 190.725 26.0372 192.291 24.1417L193.868 25.3268C192.389 27.1177 191.002 29.2571 189.745 31.6858ZM233.129 30.2221C231.374 28.1243 229.563 26.2658 227.746 24.6986L229.093 23.2781C230.99 24.9145 232.876 26.8491 234.699 29.0277L233.129 30.2221ZM199.471 20.3629L198.388 18.7498C200.767 17.2977 203.388 16.3535 206.178 15.9436L206.484 17.8364C203.972 18.2056 201.612 19.0556 199.471 20.3629ZM221.41 20.3617C219.071 19.159 216.634 18.3367 214.167 17.9178L214.52 16.0322C217.197 16.4869 219.836 17.3764 222.363 18.6758L221.41 20.3617Z" fill="#B3D2FF"/>
<path d="M97.5192 279.734C97.5192 279.734 54.2131 161.967 89.4092 134.13C112.935 115.524 132.268 149.296 162.03 127.597C188.527 108.279 180.104 49.5055 222.363 41.3819C269.875 32.2483 280.337 141.869 319.328 126.885C366.642 108.704 413.707 145.612 373.034 279.973L97.5192 279.734Z" fill="#BAD2F4"/>
<path d="M416.324 238.49C399.66 236.029 402.379 258.262 378.626 258.262C356.908 258.262 349.96 173.596 334.158 197.798C253.149 321.874 300.19 145.032 235.765 142.785C206.633 141.769 187.222 172.716 180.064 227.508C169.687 277.042 145.623 189.728 120.859 197.846C105.119 203.005 106.922 258.262 85.204 258.262C61.4502 258.262 64.1696 236.029 47.5054 238.49C29.5636 241.14 24.2046 280.491 24.2046 280.491H439.625C439.625 280.491 434.266 241.14 416.324 238.49Z" fill="#C6DCF7"/>
<path d="M401.567 262.556C386.237 261.505 388.738 270.999 366.886 270.999C346.905 270.999 347.455 249.723 334.084 245.201C309.462 236.873 289.163 279.019 279.617 257.867C261.486 201.742 208.608 173.596 184.213 257.867C174.667 279.019 152.344 241.276 129.746 245.201C115.836 247.616 116.925 270.999 96.9446 270.999C75.0918 270.999 77.5935 261.505 62.2627 262.556C45.7567 263.687 40.8267 280.491 40.8267 280.491H423.003C423.003 280.491 418.073 263.687 401.567 262.556Z" fill="#D2E5F7"/>
<path d="M24.2048 280.491C24.2048 280.491 21.5993 290.601 33.6735 293.132C50.1886 296.594 147.131 305.689 123.58 312.601C110.286 316.503 130.367 321.802 195.12 323.752C259.873 325.703 370.985 318.059 333.62 306.749C296.254 295.438 448.898 304.018 439.625 280.491H24.2048Z" fill="#BAD2F4"/>
<path d="M232 270.81C290.447 270.81 337.828 225.676 337.828 170C337.828 114.324 290.447 69.1899 232 69.1899C173.553 69.1899 126.172 114.324 126.172 170C126.172 225.676 173.553 270.81 232 270.81Z" fill="#EB5648"/>
<path d="M232 263.16C286.012 263.16 329.797 221.451 329.797 170C329.797 118.549 286.012 76.84 232 76.84C177.988 76.84 134.203 118.549 134.203 170C134.203 221.451 177.988 263.16 232 263.16Z" fill="white"/>
<path d="M232 256.53C282.168 256.53 322.837 217.789 322.837 170C322.837 122.211 282.168 83.47 232 83.47C181.832 83.47 141.163 122.211 141.163 170C141.163 217.789 181.832 256.53 232 256.53Z" fill="#EB5648"/>
<path d="M278.182 164.195C274.274 162.197 269.406 163.594 267.308 167.317L259.767 180.699C258.53 178.538 257.057 176.518 255.378 174.671V125.715C255.378 122.194 252.382 119.34 248.685 119.34C244.989 119.34 241.993 122.194 241.993 125.715V165.459C240.956 165.049 239.894 164.683 238.811 164.366V115.175C238.811 111.654 235.814 108.8 232.118 108.8C228.422 108.8 225.426 111.654 225.426 115.175V162.965C224.351 163.045 223.29 163.172 222.243 163.34V122.995C222.243 119.474 219.247 116.62 215.551 116.62C211.855 116.62 208.859 119.474 208.859 122.995V168.28C207.755 168.957 206.693 169.692 205.676 170.477V139.06C205.676 135.539 202.68 132.685 198.984 132.685C195.288 132.685 192.292 135.539 192.292 139.06V194.99C192.292 195.368 192.328 195.738 192.395 196.098C192.386 196.408 192.381 196.718 192.381 197.03C192.381 215.901 208.441 231.2 228.252 231.2C243.125 231.2 255.883 222.577 261.319 210.294L281.46 174.553C283.557 170.831 282.09 166.193 278.182 164.195Z" fill="white"/>
<path d="M302.093 51.9999V67.5668C301.859 68.8435 300.688 69.8142 299.28 69.8142C297.872 69.8142 296.702 68.8435 296.468 67.5668V51.9999C296.468 50.5192 297.726 49.3207 299.28 49.3207C300.835 49.3207 302.093 50.5192 302.093 51.9999Z" fill="#8FB3F2"/>
<path d="M299.28 77.4642C300.857 77.4642 302.136 76.2464 302.136 74.7442C302.136 73.242 300.857 72.0242 299.28 72.0242C297.703 72.0242 296.425 73.242 296.425 74.7442C296.425 76.2464 297.703 77.4642 299.28 77.4642Z" fill="#8FB3F2"/>
<path d="M98.8204 146.343C101.388 143.817 102.973 140.38 102.973 136.595C102.973 128.861 96.3678 122.57 88.2494 122.57C84.2762 122.57 80.668 124.08 78.0168 126.525C77.9552 126.572 77.8955 126.623 77.8382 126.677C77.7811 126.732 77.7281 126.789 77.6785 126.847C75.1111 129.373 73.5264 132.81 73.5264 136.595C73.5264 144.328 80.1311 150.62 88.2494 150.62C92.2227 150.62 95.8309 149.11 98.4821 146.665C98.5436 146.617 98.6034 146.567 98.6607 146.513C98.7178 146.458 98.7708 146.401 98.8204 146.343ZM98.511 136.595C98.511 138.522 97.9201 140.319 96.9052 141.835L82.7485 128.35C84.3397 127.383 86.2264 126.82 88.2494 126.82C93.9077 126.82 98.511 131.205 98.511 136.595ZM77.9879 136.595C77.9879 134.668 78.5788 132.871 79.5937 131.355L93.7503 144.84C92.1592 145.807 90.2727 146.37 88.2494 146.37C82.5911 146.37 77.9879 141.985 77.9879 136.595Z" fill="#8FB3F2"/>
<path d="M373.295 136.652C375.862 134.127 377.446 130.69 377.446 126.905C377.446 119.171 370.842 112.88 362.723 112.88C358.75 112.88 355.142 114.389 352.491 116.835C352.429 116.882 352.369 116.933 352.312 116.987C352.255 117.042 352.202 117.099 352.152 117.158C349.585 119.683 348 123.12 348 126.905C348 134.638 354.605 140.93 362.723 140.93C366.696 140.93 370.304 139.42 372.956 136.975C373.017 136.928 373.077 136.877 373.135 136.823C373.192 136.768 373.245 136.711 373.295 136.652ZM372.985 126.905C372.985 128.832 372.394 130.629 371.379 132.145L357.222 118.66C358.813 117.693 360.7 117.13 362.723 117.13C368.382 117.13 372.985 121.515 372.985 126.905ZM352.462 126.905C352.462 124.978 353.053 123.181 354.068 121.665L368.224 135.15C366.633 136.117 364.747 136.68 362.723 136.68C357.065 136.68 352.462 132.295 352.462 126.905Z" fill="#F49F9F"/>
<path d="M145.214 71.5706L152.902 64.2468C154.001 63.2003 154.001 61.5037 152.902 60.4572C151.804 59.4105 150.022 59.4107 148.924 60.4572L141.235 67.781L133.547 60.4572C132.449 59.4107 130.667 59.4107 129.569 60.4572C128.47 61.5037 128.47 63.2003 129.569 64.2468L137.257 71.5706L129.569 78.8944C128.47 79.9409 128.47 81.6375 129.569 82.684C130.118 83.2074 130.838 83.4689 131.558 83.4689C132.278 83.4689 132.998 83.2073 133.547 82.684L141.235 75.3602L148.924 82.684C149.473 83.2073 150.193 83.4689 150.913 83.4689C151.633 83.4689 152.353 83.2073 152.902 82.684C154.001 81.6375 154.001 79.9409 152.902 78.8944L145.214 71.5706Z" fill="#FFD2D2"/>
<path d="M334.892 190.551C327.585 196.57 316.685 198.475 308.596 192.612V192.604C306.189 190.926 303.757 188.227 302.066 185.404L304.052 182.337C319.822 191.603 326.065 175.79 338.89 174.558L336.323 178.128C336.323 178.128 335.115 190.303 334.892 190.551Z" fill="#9358E0"/>
<path d="M349.414 296.131L349.655 296.012C349.655 296.172 349.863 296.729 350.032 296.729L357.147 296.869C357.316 296.869 357.419 296.567 357.419 296.406L358.026 296.241C358.026 295.226 357.939 294.858 357.468 294.072C355.738 291.882 357.803 282.086 357.744 279.527C358.17 278.827 350.25 279.376 350.14 279.211C349.962 279.211 349.822 279.355 349.836 279.524L350.768 290.718C351.186 292.843 349.474 294.128 349.414 296.131Z" fill="#F99370"/>
<path d="M318.568 297.107H332.742C333.979 297.059 333.97 295.857 333.742 294.925C332.961 291.565 334.341 283.849 334.597 280.394C334.665 279.761 334.143 279.211 333.476 279.211H327.22C326.542 279.211 326.018 279.777 326.102 280.418L327.24 289.059C327.858 292.813 323.157 293.529 320.477 293.944C318.713 294.066 315.762 296.36 318.568 297.107Z" fill="#F99370"/>
<path d="M334.282 295.706C334.243 296.368 333.899 297.123 333.094 297.107H318.391C314.924 295.882 319.906 291.499 326.694 291.525C329.453 292.246 333.51 291.731 333.51 291.731C333.51 291.731 334.351 292.921 334.282 295.706Z" fill="#103663"/>
<path d="M356.899 297.107H350.615C347.553 296.709 349.737 291.555 353.756 291.516C357.796 291.478 359.959 296.714 356.899 297.107Z" fill="#103663"/>
<path d="M321.896 295.211C322.112 295.215 322.272 294.992 322.186 294.802C321.515 293.226 320.263 292.741 320.21 292.721C319.836 292.575 319.601 293.137 319.98 293.274C320.029 293.294 321.043 293.702 321.607 295.025C321.656 295.141 321.773 295.211 321.896 295.211Z" fill="#E8C0A6"/>
<path d="M324.324 294.932C324.53 294.935 324.687 294.734 324.622 294.547C324.074 292.565 321.378 291.08 322.105 292.467C322.13 292.479 323.531 293.199 324.026 294.723C324.067 294.85 324.19 294.932 324.324 294.932Z" fill="#E8C0A6"/>
<path d="M327.087 294.609C327.296 294.612 327.455 294.402 327.381 294.213C326.735 292.242 324.285 290.479 324.847 291.933C324.861 291.942 326.208 292.812 326.792 294.409C326.836 294.532 326.957 294.609 327.087 294.609Z" fill="#E8C0A6"/>
<path d="M356.01 293.296C356.315 293.307 356.444 292.882 356.168 292.741C354.061 291.566 351.43 292.679 351.319 292.727C350.949 292.881 351.209 293.434 351.577 293.269C351.602 293.195 354.254 292.288 356.01 293.296Z" fill="#E8C0A6"/>
<path d="M317.363 295.706H334.281C334.219 296.198 334.077 296.676 333.817 297.107H318.391C317.631 297.108 317.093 296.382 317.363 295.706Z" fill="#0F2E54"/>
<path d="M356.899 297.107H350.615C349.816 297.108 349.172 296.466 349.222 295.706H358.293C358.341 296.466 357.698 297.108 356.899 297.107Z" fill="#0F2E54"/>
<path d="M336.92 159.151C336.92 159.151 336.846 154.775 340.998 153.998L343.175 156.15L336.92 159.151Z" fill="#8C4225"/>
<path d="M358.735 289.468C358.735 289.468 352.033 291.019 348.58 289.353C346.783 278.617 341.795 248.725 340.057 228.242C339.99 229.436 336.34 277.606 335.645 289.353C333.262 290.112 328.468 291.029 325.786 289.189C324.581 276.823 320.712 236.112 326.54 202.863C326.54 202.863 342.512 204.555 354.984 200.965C358.418 211.512 359.327 276.812 358.735 289.468Z" fill="#1D3F70"/>
<path d="M328.364 288.162C326.726 252.625 330.484 222.061 329.921 221.696C328.935 221.771 325.157 252.609 328.364 288.162Z" fill="#163356"/>
<path d="M353.461 288.162C352.811 251.645 347.115 217.056 346.254 216.924C345.61 217.384 351.209 251.575 353.461 288.162Z" fill="#163356"/>
<path d="M338.773 174.437C338.424 171.542 338.9 167.365 339.324 165.646C340.088 162.257 345.731 163.568 344.793 166.9C344.611 166.792 344.029 172.934 344.431 174.639C349.726 176.152 333.8 181.128 338.773 174.437Z" fill="#F99370"/>
<path d="M344.847 166.621C344.833 166.714 344.816 166.809 344.793 166.9C344.662 166.818 344.295 170.207 344.291 172.666C341.865 173.717 339.16 173.255 338.665 173.158C338.612 170.043 338.912 167.204 339.393 165.422C340.376 162.405 345.349 163.504 344.847 166.621Z" fill="#E57D61"/>
<path d="M348.61 165.356C347.806 167.672 346.511 170.223 344.275 171.494L344.271 171.493C343.363 172.004 342.333 172.253 341.269 172.29C335.295 173.058 329.409 165.309 334.786 161.453C335.672 160.852 336.448 159.979 336.919 159.151C341.71 150.353 351.533 157.258 348.61 165.356Z" fill="#F99370"/>
<path d="M328.407 186.682L325.947 195.279C320.679 196.821 315.062 196.472 310.107 193.575C315.554 196.506 323.04 194.853 324.221 193.132C325.464 191.309 328.237 186.946 328.407 186.682Z" fill="#7640CC"/>
<path d="M357.308 215.321C356.738 215.981 356.129 216.643 355.485 217.309C355.485 217.309 352.347 217.871 349.89 214.757C359.911 194.52 340.563 192.631 344.43 174.638C357.357 176.092 375.34 194.47 357.308 215.321Z" fill="#9358E0"/>
<path d="M339.332 162.431C339.174 161.983 339.916 161.756 340.061 162.209C340.22 162.657 339.477 162.884 339.332 162.431Z" fill="#C16256"/>
<path d="M336.242 161.436C336.083 160.988 336.826 160.761 336.97 161.214C337.129 161.662 336.387 161.889 336.242 161.436Z" fill="#C16256"/>
<path d="M348.61 165.356C347.806 167.672 346.511 170.223 344.275 171.494L344.271 171.493C344.086 171.598 343.894 171.692 343.698 171.774C345.437 170.585 346.82 167.676 346.82 167.676L346.902 165.046C344.875 162.337 346.361 159.868 346.361 159.868C342.129 160.33 341.166 157.741 341.166 157.741C339.859 157.702 338.615 156.842 338.615 156.842C344.438 151.282 351.134 159.263 348.61 165.356Z" fill="#E57D61"/>
<path d="M337.162 164.77C337.411 164.844 337.624 164.512 337.3 164.484C336.791 164.576 335.679 164.076 336.293 163.836C337.173 163.55 338.546 161.631 337.744 161.975C337.736 161.988 336.973 163.317 336.198 163.576C335.135 164.078 336.427 164.771 337.162 164.77Z" fill="#C16256"/>
<path d="M357.308 215.32C356.738 215.981 356.129 216.643 355.485 217.308C355.485 217.308 352.29 217.735 349.832 214.621C350.193 213.785 350.592 213.242 350.9 212.412C350.9 212.412 352.798 214.437 357.308 215.32Z" fill="#7640CC"/>
<path d="M355.711 217.709C356.388 217.902 357.099 217.139 356.18 216.918C351.207 217.125 349.882 213.998 349.828 213.864C347.672 212.708 350.321 217.993 355.711 217.709Z" fill="#163356"/>
<path d="M324.218 217.156C324.218 217.156 325.193 221.142 333 223.109C335.236 223.672 336.528 223.393 336.856 221.917C337.021 221.175 337.445 219.885 338.227 219.406C338.227 219.406 339.974 220.125 340.633 221.144C342.078 223.379 344.255 221.348 345.315 219.009C346.626 216.116 350.83 213.16 351.556 210.734L324.218 217.156Z" fill="#F4D4BE"/>
<path d="M356.03 212.228C355.776 212.656 355.624 212.589 355.364 212.34C348.351 207.351 345.84 218.252 338.283 218.448C330.591 219.173 326.312 219.587 324.217 217.155C320.559 211.755 326.377 187.612 331.083 181.766C333.144 178.726 336.801 176.017 338.77 174.44C338.73 174.598 337.682 178.75 344.431 174.638C344.77 174.774 346.91 176.763 346.775 177.827C347.118 182.715 359.292 206.737 356.03 212.228Z" fill="#9358E0"/>
<path d="M336.554 152.915C336.554 152.915 338.533 152.396 340.561 153.154C340.793 152.422 341.267 151.745 342.037 151.21C342.368 152.101 342.838 152.956 343.373 153.753C343.556 152.078 344.64 150.72 344.64 150.72C344.93 152.324 347.257 153.478 348.355 155.215C348.355 155.215 354.562 157.242 350.131 162.434L350.131 162.433C349.948 164.354 348.964 166.298 348.964 166.298C345.706 163.463 346.408 160.056 347.889 159.171C345.233 160.067 342.868 159.004 341.532 157.326C339.558 157.013 337.143 155.989 336.554 152.915Z" fill="#8C4225"/>
<path d="M351.97 213.764L350.433 213.459C356.58 200.276 349.35 194.703 345.526 187.276C354.394 197.051 355.736 202.411 351.97 213.764Z" fill="#7640CC"/>
<path d="M349.993 166.8C348.975 169.403 345.541 168.143 346.62 165.563C347.638 162.96 351.072 164.22 349.993 166.8Z" fill="#F99370"/>
<path d="M349.021 167.223C349.649 166.597 349.648 165.546 349.362 165.253C348.841 164.743 347.852 164.804 347.85 165.1C347.983 165.398 348.654 164.91 349.134 165.424C349.652 165.812 348.617 167.064 349.021 167.223Z" fill="#C16256"/>
<path d="M347.719 166.828C347.94 166.813 348.299 165.857 349.393 165.92C349.472 165.928 349.543 165.871 349.551 165.795C348.838 165.107 347.073 166.841 347.719 166.828Z" fill="#C16256"/>
<path d="M346.506 174.991C346.543 177.444 339.938 179.609 339.563 179.612L338.772 177.381C337.755 177.62 336.86 178.975 336.86 178.975C333.93 176.316 336.685 173.998 338.772 174.437C338.772 174.437 338.772 174.438 338.77 174.44C338.729 174.599 338.269 178.238 344.406 174.512C345.196 174.164 346.506 174.991 346.506 174.991Z" fill="#F4D4BE"/>
<path d="M335.645 289.353C335.651 289.343 334.78 289.658 333.576 289.877C333.576 289.877 336.944 242.074 337.445 235.694C337.947 229.315 340.057 228.242 340.057 228.242C340.057 228.242 335.589 288.32 335.645 289.353Z" fill="#163356"/>
<path d="M335.778 287.035C335.688 288.414 335.639 289.239 335.645 289.353C333.262 290.112 328.468 291.029 325.786 289.189C325.786 289.189 325.718 288.431 325.578 287.035C325.578 287.035 330.26 289.093 335.778 287.035Z" fill="#163356"/>
<path d="M358.735 289.468C358.735 289.468 352.033 291.019 348.58 289.353C348.58 289.353 348.438 288.522 348.188 287.035C348.188 287.035 352.911 288.231 358.818 286.971C358.844 288.42 358.714 289.348 358.735 289.468Z" fill="#163356"/>
<path d="M305.796 183.28C305.787 185.24 302.988 186.819 302.988 186.819C302.674 186.367 302.361 185.89 302.066 185.404L304.052 182.337C304.651 182.652 305.232 183.016 305.796 183.28Z" fill="#7640CC"/>
<path d="M301.136 176.822C300.367 177.293 301.628 178.742 301.532 179.531C300.258 178.977 299.141 178.069 299.132 178.07C298.039 176.787 297.022 175.449 296.067 174.068C293.713 173.04 297.447 178.119 297.728 178.744C297.722 178.75 297.716 178.756 297.709 178.761C296.296 177.674 294.942 176.511 293.7 175.247C291.051 174.72 296.391 179.362 296.877 179.914C296.875 179.918 296.873 179.922 296.871 179.925C295.36 179.117 293.952 178.132 292.671 177.018C289.955 176.713 295.757 181.03 296.402 181.417C296.401 181.424 296.399 181.43 296.398 181.436C295.248 181.291 292.882 179.266 292.123 179.755C291.403 180.866 299.172 184.852 301.894 185.352C302.874 185.609 304.288 183.262 304.048 182.34C303.823 181.475 303.197 180.416 302.982 180.028C302.642 179.125 302.263 176.893 301.136 176.822Z" fill="#F99370"/>
<path d="M308.586 192.587C308.667 192.646 308.748 192.706 308.828 192.774C308.748 192.715 308.676 192.663 308.596 192.612V192.604C308.586 192.595 308.586 192.587 308.586 192.587Z" fill="#395B96"/>
<path d="M341.545 161.846C341.567 161.84 341.588 161.83 341.606 161.815C341.686 161.754 341.698 161.644 341.635 161.568C341.602 161.53 340.824 160.623 339.519 160.67C339.417 160.673 339.338 160.755 339.342 160.852C339.346 160.949 339.431 161.025 339.533 161.021C340.648 160.981 341.34 161.78 341.347 161.788C341.396 161.846 341.475 161.867 341.545 161.846Z" fill="#C16256"/>
<path d="M336.533 160.244C336.566 160.246 336.599 160.241 336.631 160.226C337.217 159.949 337.871 160.33 337.878 160.333C337.964 160.385 338.078 160.36 338.132 160.278C338.186 160.196 338.16 160.088 338.074 160.036C338.041 160.016 337.241 159.545 336.467 159.911C336.376 159.954 336.338 160.059 336.384 160.146C336.413 160.203 336.471 160.238 336.533 160.244Z" fill="#C16256"/>
<path d="M338.28 165.439C338.247 165.445 338.217 165.459 338.191 165.481C337.704 165.898 336.966 165.698 336.959 165.697C336.862 165.669 336.759 165.722 336.73 165.815C336.701 165.908 336.756 166.006 336.854 166.033C336.892 166.044 337.794 166.293 338.437 165.743C338.513 165.678 338.519 165.567 338.451 165.495C338.406 165.447 338.341 165.428 338.28 165.439Z" fill="#C16256"/>
<path d="M113.478 179.71C115.828 165.242 124.594 168.651 124.594 168.651C124.594 168.651 129.415 166.264 133.402 172.074C139.723 181.285 147.114 178.984 148.847 187.283C150.544 195.414 138.93 204.655 125.097 198.647C125.097 198.647 111.112 194.276 113.478 179.71Z" fill="#662948"/>
<path d="M159.23 203.48C159.827 203.965 158.406 205.11 158.333 205.788C159.565 205.536 160.73 204.943 160.738 204.946C161.958 204.019 163.124 203.031 164.242 201.992C166.546 201.451 162.189 205.341 161.835 205.797C161.839 205.803 161.843 205.809 161.848 205.816C163.31 205.12 164.735 204.347 166.083 203.464C168.576 203.407 162.844 206.633 162.346 206.982C162.347 206.986 162.347 206.989 162.348 206.993C163.84 206.561 165.277 205.954 166.628 205.21C169.146 205.365 163.056 208.212 162.458 208.391C162.458 208.397 162.458 208.402 162.457 208.408C163.681 208.231 164.88 207.905 166.053 207.524C168.377 207.989 162.741 209.738 162.175 209.845C161.823 210.106 159.619 210.7 156.834 210.839C155.922 210.884 155.155 208.561 155.553 207.795C155.925 207.076 156.691 206.261 156.958 205.959C157.379 205.29 158.316 203.257 159.23 203.48Z" fill="#F99370"/>
<path d="M123.544 196.597C125.817 198.194 127.025 200.625 128.789 202.867C130.86 205.651 133.226 208.62 136.264 210.588C142.715 214.572 150.763 212.995 157.55 210.878C160.013 210.155 158.901 206.471 156.412 207.111C150.606 208.362 142.825 209.491 138.713 204.46C134.748 200.095 133.522 193.964 129.067 189.881C124.223 185.645 118.055 193.116 123.544 196.597Z" fill="#F99370"/>
<path d="M126.455 204.297C127.188 206.236 128.175 207.754 129.269 208.932C131.344 211.168 133.809 212.18 135.662 212.521C135.724 212.533 135.785 212.544 135.846 212.554C138.669 213.02 144.703 206.392 141.435 204.118C138.169 201.845 138.736 200.469 134.841 194.998C130.946 189.528 127.662 188.541 127.662 188.541C127.708 192.768 124.289 198.554 126.455 204.297Z" fill="#CE4ABF"/>
<path d="M74.1913 275.68L72.063 263.194C72.7219 262.873 75.9963 262.998 77.1422 262.698C77.8749 262.631 87.0823 260.189 88.0412 259.965L89.2631 267.133L79.3822 267.473C78.2103 267.513 77.2361 268.341 77.0538 269.444C76.5249 271.889 77.4209 274.448 75.7716 276.217C75.2062 276.692 74.3121 276.388 74.1913 275.68Z" fill="#F99370"/>
<path d="M73.2588 262.621C72.8248 262.74 72.4147 262.923 72.0627 263.194L74.2086 275.782C74.313 276.394 75.0211 276.739 75.5929 276.443C76.9285 275.746 78.7022 273.768 78.0318 267.917C78.0318 267.917 77.0782 266.038 77.1419 262.697C77.1419 262.697 75.0179 262.134 73.2588 262.621Z" fill="#1D3F70"/>
<path d="M77.6699 274.083C77.19 273.955 77.2364 273.246 75.6349 272.873C75.4889 272.841 75.3972 272.703 75.4307 272.563C76.0225 271.77 78.8333 274.032 77.6699 274.083Z" fill="#E8C0A6"/>
<path d="M78.0857 272.214C78.0031 272.214 77.9217 272.178 77.8684 272.11C77.86 272.099 77.0159 271.049 75.5709 270.856C75.222 270.815 75.2985 270.292 75.6462 270.344C77.3217 270.568 78.2637 271.75 78.3031 271.801C78.4386 271.963 78.3008 272.22 78.0857 272.214Z" fill="#E8C0A6"/>
<path d="M78.1655 269.88C77.79 269.816 77.2562 268.873 75.4684 268.554C75.1222 268.502 75.2153 267.982 75.5623 268.046C77.3546 268.413 79.0678 269.598 78.1655 269.88Z" fill="#E8C0A6"/>
<path d="M75.6132 276.432L73.2588 262.62C72.8248 262.74 72.4147 262.923 72.0627 263.194L74.2086 275.782C74.3135 276.403 75.0418 276.747 75.6132 276.432Z" fill="#395B96"/>
<path d="M129.269 208.932C131.345 211.167 133.81 212.18 135.662 212.521C134.496 210.253 136.112 209.266 136.411 205.554C136.725 201.664 133.155 197.615 133.155 197.615L129.269 208.932Z" fill="#A523A2"/>
<path d="M132.705 296.908L119.442 296.769C119.224 296.094 119.912 293.047 119.797 291.919C119.794 291.444 119.667 288.846 119.621 288.372L120.614 281.244L126.46 281.305L125.122 290.634C124.963 291.74 125.652 292.796 126.763 293.156C129.199 294.067 131.981 293.671 133.541 295.501C133.946 296.117 133.467 296.916 132.705 296.908Z" fill="#F99370"/>
<path d="M119.053 295.549C119.103 295.977 119.222 296.393 119.442 296.77L132.833 296.909C133.484 296.916 133.963 296.311 133.754 295.724C133.261 294.351 131.518 292.349 125.35 291.977C125.35 291.977 123.243 292.55 119.797 291.919C119.797 291.919 118.851 293.816 119.053 295.549Z" fill="#1D3F70"/>
<path d="M129.817 295.232C129.629 295.236 129.489 295.04 129.567 294.874C130.165 293.512 131.257 293.102 131.303 293.086C131.63 292.962 131.827 293.453 131.498 293.568C131.456 293.584 130.57 293.928 130.067 295.074C130.024 295.173 129.923 295.232 129.817 295.232Z" fill="#E8C0A6"/>
<path d="M127.711 294.968C127.532 294.97 127.395 294.793 127.453 294.63C127.949 292.915 130.305 291.65 129.66 292.848C129.644 292.855 128.416 293.467 127.97 294.789C127.933 294.898 127.826 294.968 127.711 294.968Z" fill="#E8C0A6"/>
<path d="M125.316 294.662C125.133 294.665 124.994 294.481 125.061 294.316C125.647 292.765 126.935 291.96 126.989 291.926C127.281 291.741 127.582 292.181 127.284 292.36C127.266 292.371 126.092 293.113 125.571 294.491C125.531 294.596 125.427 294.662 125.316 294.662Z" fill="#E8C0A6"/>
<path d="M133.746 295.703L119.053 295.549C119.102 295.977 119.222 296.393 119.442 296.77L132.833 296.91C133.494 296.917 133.974 296.293 133.746 295.703Z" fill="#395B96"/>
<path d="M79.3125 261.531C79.3125 261.531 79.3125 265.089 80.3299 268.481C105.788 266.46 116.356 263.304 118.345 239.771C118.345 239.771 127.043 255.618 118.736 285.754H118.734C118.494 286.638 118.244 287.507 117.976 288.393C117.976 288.393 121.243 290.938 125.759 290.104C131.389 279.911 143.812 255.38 133.085 223.284C126.691 216.239 113.823 215.522 105.652 219.058C99.0755 235.168 110.621 254.987 79.3125 261.531Z" fill="#3A72AA"/>
<path d="M79.3125 261.531C79.3125 261.531 79.3125 265.089 80.3299 268.481C80.3299 268.481 81.4771 268.405 83.3325 268.223C82.1665 265.5 82.1998 260.859 82.1998 260.859C81.2909 261.109 80.3039 261.301 79.3125 261.531Z" fill="#23659B"/>
<path d="M117.976 288.393C117.976 288.393 121.243 290.938 125.759 290.104C125.759 290.104 126.179 289.324 126.976 287.858C126.976 287.858 121.638 288.337 118.736 285.754H118.734C118.498 286.622 118.245 287.501 117.976 288.393Z" fill="#23659B"/>
<path d="M118.734 285.754C118.651 286.06 118.566 286.366 118.479 286.673H120.096C125.752 270.533 126.74 243.95 118.344 239.771C118.344 239.771 127.043 255.618 118.736 285.754H118.734Z" fill="#23659B"/>
<path d="M124.341 289.323C128.794 279.652 131.765 270.208 133.171 261.254C134.298 254.078 134.429 247.197 133.558 240.802C132.07 229.871 128.22 224.219 128.057 223.984L126.979 224.662L127.518 224.323L126.979 224.662C127.018 224.717 130.853 230.37 132.289 241.049C133.617 250.917 133.111 267.216 123.158 288.83L124.341 289.323Z" fill="#23659B"/>
<path d="M81.3844 267.61C90.4738 266.777 97.2612 265.286 102.134 263.052C106.976 260.833 110.261 257.73 112.176 253.566C116.972 243.137 115.209 222.211 115.131 221.326L113.844 221.428C113.863 221.642 115.658 242.929 110.993 253.072C107.382 260.923 98.7682 264.78 81.2607 266.386L81.3844 267.61Z" fill="#23659B"/>
<path d="M105.214 220.212C110.9 222.782 124.145 228.173 133.298 223.933C133.806 222.916 133.885 221.341 133.5 220.213C129.947 208.607 139.447 207.093 132.985 197.354C131.539 195.189 128.806 190.562 127.662 188.541C126.593 190.982 123.455 188.672 122.188 187.273C121.256 187.315 111.128 188.125 107.066 208.745C106.657 210.836 101.051 216.984 105.214 220.212Z" fill="#CE4ABF"/>
<path d="M124.455 216.38C124.588 217.116 122.726 217.129 122.214 217.605C123.329 218.163 124.623 218.418 124.627 218.425C126.187 218.458 127.747 218.41 129.305 218.295C131.438 219.285 125.476 219.614 124.898 219.748C124.897 219.755 124.896 219.762 124.895 219.77C126.486 220.128 128.1 220.404 129.728 220.549C131.682 222.026 125.111 221.006 124.493 220.97C124.491 220.973 124.489 220.976 124.487 220.979C125.924 221.558 127.435 221.969 128.973 222.222C130.802 223.877 124.212 222.347 123.632 222.12C123.628 222.124 123.624 222.129 123.62 222.133C124.678 222.744 125.819 223.225 126.975 223.648C128.447 225.423 122.944 223.327 122.436 223.064C121.991 223.05 119.899 222.161 117.667 220.568C116.935 220.047 117.909 217.795 118.73 217.449C119.5 217.124 120.635 216.965 121.044 216.897C121.817 216.64 123.903 215.65 124.455 216.38Z" fill="#F99370"/>
<path d="M114.722 188.692C109.281 192.581 103.682 198.579 101.689 204.795C98.5359 213.378 109.849 218.416 117.125 220.444C118.549 220.96 120.207 221.238 120.796 219.518C121.214 217.944 119.842 217.317 118.559 216.857C116.167 215.801 113.725 214.465 111.745 212.872C109.434 211.062 107.575 208.58 109.377 205.966C111.531 201.763 115.227 198.161 119.409 195.85C124.31 192.908 119.647 185.794 114.722 188.692Z" fill="#F99370"/>
<path d="M122.133 187.275C122.133 187.275 114.004 185.855 108.037 192.885C102.07 199.915 97.1901 208.839 101.147 211.172C103.414 212.509 103.658 208.982 109.249 210.025C113.611 210.839 112.762 203.109 119.321 196.639C122.931 193.079 123.058 188.541 122.133 187.275Z" fill="#CE4ABF"/>
<path d="M109.727 210.43C110.428 210.43 112.794 210.083 114.369 205.637C116.081 200.804 119.068 197.416 119.097 197.383C119.229 197.235 119.21 197.013 119.055 196.887C118.899 196.762 118.667 196.78 118.534 196.928C118.408 197.069 115.426 200.453 113.67 205.412C112.058 209.962 109.659 209.727 109.636 209.723C109.432 209.699 109.249 209.833 109.221 210.023C109.193 210.214 109.329 210.39 109.529 210.419C109.546 210.421 109.615 210.43 109.727 210.43Z" fill="#A523A2"/>
<path d="M127.653 188.327C127.653 188.327 129.216 188.868 129.893 189.792C129.893 189.792 129.697 191.106 128.683 191.583C127.539 192.122 126.376 190.125 126.376 190.125C126.376 190.125 126.126 191.867 124.713 191.748C123.3 191.628 120.614 189.653 119.766 187.168C119.766 187.168 121.484 186.885 122.133 187.275L127.653 188.327Z" fill="#FFD2D2"/>
<path d="M127.869 186.845L127.653 188.327C127.092 190.663 122.851 188.41 122.188 187.273C122.188 187.273 122.388 186.42 122.457 185.656L127.869 186.845Z" fill="#F99370"/>
<path d="M122.596 180.218C122.598 180.31 122.603 180.404 122.614 180.495C122.752 180.429 122.696 183.761 122.4 186.15C124.63 187.438 127.313 187.287 127.806 187.248C128.236 184.228 128.29 181.439 128.04 179.655C127.451 176.617 122.487 177.136 122.596 180.218Z" fill="#E57D61"/>
<path d="M118.989 178.393C119.423 180.742 120.298 183.385 122.274 184.915H122.278C123.076 185.529 124.043 185.913 125.065 186.09C130.803 187.584 137.553 181.011 132.949 176.476C131.289 175.057 130.903 172.507 129.575 171.091C127.636 168.492 123.471 168.686 121.252 170.857C119.248 172.821 118.592 175.498 118.989 178.393Z" fill="#F99370"/>
<path d="M128.404 176.811C128.624 176.398 127.939 176.079 127.732 176.497C127.511 176.909 128.196 177.229 128.404 176.811Z" fill="#C16256"/>
<path d="M131.543 176.264C131.763 175.851 131.078 175.532 130.871 175.95C130.651 176.362 131.336 176.682 131.543 176.264Z" fill="#C16256"/>
<path d="M130.616 179.365C130.386 179.369 129.88 179.459 129.889 179.161C129.912 179.09 129.991 179.049 130.066 179.071C130.543 179.209 131.212 178.973 131.301 178.768C131.332 178.695 131.229 178.625 131.137 178.579C130.337 178.21 129.277 176.097 130.01 176.583C130.015 176.597 130.556 177.986 131.268 178.34C132.073 178.853 131.248 179.27 130.616 179.365Z" fill="#C16256"/>
<path d="M118.989 178.393C119.423 180.742 120.298 183.385 122.274 184.915H122.278C121.176 183.651 120.457 180.797 120.457 180.797L120.95 179.516C129.496 176.759 128.661 170.177 128.661 170.177C123.4 166.206 117.779 173.015 118.989 178.393Z" fill="#E57D61"/>
<path d="M127.819 169.566C127.819 169.566 128.528 176.097 120.884 178.86L118.105 177.449C115.339 172.459 120.18 164.951 127.819 169.566Z" fill="#662948"/>
<path d="M118.741 167.76C120.616 173.902 128.126 171.939 126.446 165.746C124.571 159.605 117.061 161.568 118.741 167.76Z" fill="#662948"/>
<path d="M117.436 179.604C118.035 182.26 121.546 181.503 120.884 178.86C120.286 176.205 116.775 176.962 117.436 179.604Z" fill="#F99370"/>
<path d="M118.353 180.144C117.763 179.57 117.975 178.398 118.276 178.193C118.83 177.762 119.833 177.977 119.762 178.247C119.588 178.517 119.012 177.955 118.471 178.388C117.917 178.79 118.684 179.915 118.353 180.144Z" fill="#C16256"/>
<path d="M119.673 179.937C119.383 179.926 119.262 178.925 118.147 178.833C118.069 178.829 118.009 178.766 118.013 178.691C118.786 178.121 120.203 179.986 119.673 179.937Z" fill="#C16256"/>
<path d="M119.003 180.641C119.003 181.034 119.651 181.025 119.639 180.633C119.639 180.24 118.991 180.249 119.003 180.641Z" fill="#F4D4BE"/>
<path d="M129.45 181.064C129.274 181.019 129.113 180.91 128.996 180.757C128.749 180.434 128.779 180.01 129.063 179.812C129.206 179.713 129.388 179.685 129.575 179.733C129.751 179.778 129.912 179.887 130.029 180.04C130.276 180.363 130.246 180.787 129.962 180.985C129.865 181.052 129.75 181.087 129.627 181.087C129.57 181.087 129.51 181.079 129.45 181.064ZM129.226 180.025C129.065 180.137 129.062 180.396 129.22 180.602C129.3 180.706 129.407 180.78 129.523 180.809C129.628 180.836 129.725 180.823 129.799 180.772C129.96 180.66 129.963 180.401 129.805 180.195C129.726 180.091 129.618 180.017 129.503 179.988C129.467 179.978 129.432 179.974 129.399 179.974C129.334 179.974 129.275 179.991 129.226 180.025Z" fill="#C16256"/>
<path d="M126.844 176.065C126.888 176.065 126.93 176.046 126.957 176.01C127.461 175.332 128.437 175.325 128.446 175.325H128.447C128.523 175.325 128.585 175.266 128.585 175.194C128.585 175.121 128.524 175.062 128.447 175.062C128.447 175.062 128.446 175.062 128.446 175.062C128.382 175.062 127.315 175.074 126.732 175.858C126.688 175.917 126.702 175.999 126.765 176.041C126.789 176.058 126.817 176.065 126.844 176.065Z" fill="#C16256"/>
<path d="M129.812 175.134C129.832 175.134 129.853 175.13 129.872 175.122C130.736 174.73 131.405 175.111 131.412 175.115C131.477 175.153 131.563 175.133 131.603 175.071C131.642 175.009 131.622 174.928 131.557 174.89C131.524 174.871 130.751 174.432 129.753 174.884C129.684 174.915 129.654 174.993 129.687 175.059C129.711 175.106 129.761 175.134 129.812 175.134Z" fill="#C16256"/>
</g>
<defs>
<clipPath id="clip0_260_84">
<rect width="464" height="340" fill="white"/>
</clipPath>
</defs>
</svg>
